<mxfile host="app.diagrams.net" modified="2022-07-12T02:06:56.516Z" agent="5.0 (Macintosh; Intel Mac OS X 10_15_7) AppleWebKit/537.36 (KHTML, like Gecko) Chrome/103.0.0.0 Safari/537.36" etag="5k7Ctk1XLJSvDOxRjXYh" version="20.0.4" type="github">
  <diagram id="7aWzlPPLSWS0IlCePyb5" name="第 1 页">
    <mxGraphModel dx="485" dy="315" grid="1" gridSize="10" guides="1" tooltips="1" connect="1" arrows="1" fold="1" page="1" pageScale="1" pageWidth="827" pageHeight="1169" math="0" shadow="0">
      <root>
        <mxCell id="0" />
        <mxCell id="1" parent="0" />
        <mxCell id="HwkPko2BCfhJ_nkPSh1P-1" value="&lt;font style=&quot;font-size: 18px;&quot;&gt;CSS中的三列布局&lt;/font&gt;" style="text;html=1;strokeColor=none;fillColor=none;align=center;verticalAlign=middle;whiteSpace=wrap;rounded=0;" vertex="1" parent="1">
          <mxGeometry x="30" y="230" width="180" height="20" as="geometry" />
        </mxCell>
        <mxCell id="HwkPko2BCfhJ_nkPSh1P-8" value="" style="shape=stencil(7ZzLshy3EUS/5m478H6sZfk/FCHKZJgmFRRtS3/vgq8xdzpr5jS580I7PpDTDaBQlZVV6Jf8w2/vf/r13UsKv3398vnv7/794eev71/yX15S+vDp/bsvH77an17yjy/5h18+f3n3ty+f//np59e///rTGrn+9I/P/1q/8PsrroWjh4VK4Y/XfwlHG//9h7++jv/44dPd+NqPkWT8TDC+HLGdxscjTRgfj6LjG4wv82j5ND4docP4sR//Nr7Q7/cjVRk/A4xvR+2n8fnIGcbX/XNv4zusv40v598vR248vsn4Qetj48/7W4/K75/P69+OXL7n/dvR+f3/Z457vG3IxXpmGd9pvL3u2R7MQCKOn13Gdxrfj3p+/7kN6ql9Jhk/6PfH3s7beQlHpg2eumEGmGRxdsLkCXGfuWcAWaKYjkQ+JRyhKWCCURhADmXMRwOrM0A573K0YwPbYIAuc6j7JZ/5reAAHfbBAPlsGLGhJzLAjGdAPyIB0lEdYNIq5SOWM2Cg8zWAGHecRwXvaIB5foKFjwzmbeEjnU3D4gFOuhxV/LsFBAaIwzAPHGgOVa3VAJNsqR7xvA/mgzFm1u1Cb4B6DDpA1QXBtsP0M8CUOXS21ra36QYYzBPa0eQJc0fGZ8QinB1ftkNL1tr1AOWIrtUA/Wwa2UyDjG9sQ7gDdH6C2FLOO/w+fSVhC4Wtte9ofAeg+GOAJE+oTMCaWyUzPppD2wHzBrjF1GfGJ17DAJOdgHDU3DdLeepmugIGO7IkrzSQtplvzVUBaBpx07QbYG5v+zRORwWQEzCmMc8bV8J2ns+o0igKmEQdikbREjGKlqRnujA7X1PMCiB6aPvazvtQMpqGGXM877TNigK7HXld1rJd22NAUEZpC02UMvmNq9vgHwN8DtD2rB4D8vZzdwCag0VloQ5mXRE2zpjFaAogRmbsKMocBu6DUcJYFVDgiDpiXJipm9MKOh6j9JHk9MwjEC12S2rjYdMsD0w6PpIZaSK5xpMVHdH9Pp1NS8zd7wdYn7Dzlvv1BIsI6iBXaoPjw9DxlOkFDeY2vuH7R/f+xG2DJs7LPnH8mDo+w/jo7GdwJvxgPSMcsLGt5RvHR5ctrBcCg7ZkojhAhR1YUpEDdALkHYPvbQ7WyA598oeMPKnZjDvFlLVZNNCIZjEOtjlntdMa8NyviFYVgCGwK9lZ2S7NYe6U6waI+5mPTS/q2TRAJSqSlAevbJfITtHwYYyMJm0hVY6PAShFsgipr5RZuelbuLsDoPRktiQ7XfDEmeUkB2gkDjnpZiWvRGuDqhgGKKyTyJk2ADLtoAdopZaUFwZleAYgBXMB5JVumeJTQFAA5iPGjuSVxmZkT1dJTMNi58WyRgUQYVs+QmTYgM7YTEOs1QAobM/Ntm6AyMr5VFtqCRneGz+7A6DQODTEtYzi0KKYUQF4RLuqGK3wsrr83ADkWw0gOVWrSAMWoCuAeNKqYJzPQ2vbup5K3FkB6IybJvTNloFeyUkGbWz7/cZUtV3I7q7s0SYva3XWOtEJrCzwvHE9IJsxQD1zjR43BX+abncFYC2s6BHtCbUeAwj9MQB5b0uutbrCApcBxLf2wllSVr3KAI02Lqmk3CvbUtIIZIDGKoZo0L3tQPyM/sykAHQzUZ1x78w1oiaHBiBWWaKz1sF1w6hh1wCkchtAhPc+t1t4Cjjb0gic0ESNoiOwtUYlJyPuyP0UcF7WkTiguKTYAOiMPSAjdVgAWSXWqx6s0gVJ9PtwcYCiKsQGuDiiQk5GQ5W7JA2KBrh4wpBJd24DyM40OptG0fR4DKRwBtBC8eCgWPf5ugGMQXEUlVYMA2CW1dXzzcBzGEp0DUAaSJna/WAArI0FjXEzol9aeeHZlmZCa11Z21RAp7pS0fxhZs4fXDFtZtTRfRFnFjSN6hK/WVGmMGouwvtkSdmYtqil8yaNPAYU7cswABlfc3UlA1A9w+hUkH3oqDr0pOfBAFSe6I63TnYCFtGmewJVfcy5S+XKAJRlmRcSVzkHqrhzujnMzaCeAcTNzIk6+gI0BVBgt/9uSQF04uZ48EpUcjSAmvdEN2OmJk+IIWCV386L6HbrERCz7Ah3txGkPS4n4SYxGCBtAWtdaQ5ZZbi1c7QRWYU+A5DrM0BztpHoCUUZlgEoCbJ9EMI0OSouNxQdgJ7QH5grPsFpwJMrM2sR3bIS012G0N0+UG0muOrG2mp+RHePoORy+hh0Ya5DS+RXB8K8tT/V9EpNX+kbTnX0jyBPU7Rc/LY3z05EdcuEzu97AaNqZja5kGhJj2TIkytrlumNqgBSW7onAwNlgR41y58DlYo2tNlnxQBiQN5v9D2rZwxIPROLWHVqgXPxE3A0RvsklTMDJn3Tt3UZgMjA6sdztA/7j5KqXpPbgxdfDwrAftmpedMyeG7Q1tieuCvlpq3cAVCjrS5JifxKPrRH7IYorg5paRAqd8mR48ASU9qJ213uR6XR4mqpg2PQah4678NgJ5CnJloGoCQlD020RufOmrFVgzsA9VBlV5Ib3Pey+socgHKOVUuVVarY95K7nrgLtSV3DVkXek7uWhq9UIzWHL5Lk3oAYNVrvdJQAOlqD+bAyt2DVWJt8ME+sPqYXX/qhb6Z3U2BCwV1AZoCKH/Nt7LMnQqMhfyuXqPzbYq106KVXx4gVYHb1RHVSdf9E8+cgNDKXrmncGh86Ky2mCMTN9Mz1r+yK42uqgi7yi41i4TkJLsc/KKyswBiGhH7tYu7g2EA1GiDOoEeWMkOrjQ6cdIGGK6Gd1EVkVcy2oiVnbgN4Q5ArNIA+kq3iPFU+pbSaMOuwiV9dwXgfZ6k3LtVzMsW14gKIFta4rosa+E7W0mNrxUUE4tTNlpGN1Ncc+Sq/NOky4NmhAvOJ+nA6l4gRnZbkxsgoq72oOIc+DxU7Qhvgc/DrXdnAy66SNYTvqtPpVRtmr3ohCmua3b12pBpuH7ti26e4m7brH4hMu+qgb1e9EcUdQKrAsBldsmBauX+OafD1XLlBCQtW1cguEpYmwKwduQSv3VbjEmitsMlvBZibEbK7DWhcJeLKic1XnXmyw26dWuP2kOHxunVKUkA17KxGrMuGu3Pxlc4j4uPOlapzThGdferjRDMe6hbWik8qRR/9sH/2Qd/Gv//1QfvSOEaT75U70e/dQ0+Fg6V7BRuxZna2rl6BqnPPirBWx19BCiuMb9hOS26bxYYAH2KawgvfEHVNkH6M0rFJ6xdkDkUTJ6TUwFLQTNd94NkDhdZXlR9a9FWStqy5sJXl9mq6u5X1+WcKl64eyK7r2WsK3/M/UUxWHkfcx29oDoxn/fyrc0K7zm6fN4AqMZO7WJZ3OTiawFJAXTi1uVOuW/a0AdUF3QW++G7/NIAmy8+L5BVyVz3fqkTJ7sPkZR9e+AxoLgLqqwzVlclWrej6ZWKHtGceNJFM9V1w5t7faTRbJ1y6vUp2p+RWfVYd0DOppH4PNSs8WGxUC766PcIOACZLQmjWl8LoFVy2UW6uOTh7mpeffHA1aES5y+rDSwogFjYuoAkgIQ0skZVAReT4FshUpddVI7djIjckdsz1nUe+aDHYCFmaKYaB4sYQzcuXjQid1XQFpngGxX6jZHKH7hpmoOtq8P8BSb9wE3BxHM1Xp7Pw/qazEUBUVYp8QWJqp0NBsCvJBVlAvGy9V/4UoxXDbCSnseL1k53L3FiGrO65qUsy7vgPvw1kLQaDxG7GLykwan6aHeLKumHp+hLNXmqFNaufl9kJ/5wlpEcKSdVvJ+Sh1p15ZLb0MbawuWt6fJOTuOnRp3M1wOcMpLRX3v7SZjWLpFaP+yGv+/03ci/35UT8p3ZGvQrEBcf4qvaQsMX/urQaMO939VpX4E/ljPVA3ErVnUlLf79FjTSBKR2qwXa/T63TBddf9qv5m5BBG6Yjn6+5E9aVF0hoP9srjQVsDLV3H2dwP3bTkcJ2Lz0vR+WvB5vf3j7iuUvHz5+fP0I5v3/61cv7Z9ev5iZf/wP);lineShape=1;fontSize=18;" vertex="1" parent="1">
          <mxGeometry x="197.73680357562034" y="175.82642727924537" width="17.828607489793214" height="125.33426350949448" as="geometry" />
        </mxCell>
        <mxCell id="HwkPko2BCfhJ_nkPSh1P-9" value="&lt;font style=&quot;font-size: 14px;&quot;&gt;普通方式&lt;/font&gt;" style="rounded=1;whiteSpace=wrap;html=1;fontSize=18;" vertex="1" parent="1">
          <mxGeometry x="220" y="175.82999999999998" width="90" height="20" as="geometry" />
        </mxCell>
        <mxCell id="HwkPko2BCfhJ_nkPSh1P-10" value="&lt;font style=&quot;font-size: 14px;&quot;&gt;2.flex布局&lt;/font&gt;" style="rounded=1;whiteSpace=wrap;html=1;fontSize=18;fillColor=#d5e8d4;strokeColor=#82b366;" vertex="1" parent="1">
          <mxGeometry x="350" y="195.82999999999998" width="90" height="20" as="geometry" />
        </mxCell>
        <mxCell id="HwkPko2BCfhJ_nkPSh1P-11" value="&lt;font style=&quot;font-size: 14px;&quot;&gt;1.定位方式&lt;/font&gt;" style="rounded=1;whiteSpace=wrap;html=1;fontSize=18;fillColor=#d5e8d4;strokeColor=#82b366;" vertex="1" parent="1">
          <mxGeometry x="350" y="146.57999999999998" width="90" height="20" as="geometry" />
        </mxCell>
        <mxCell id="HwkPko2BCfhJ_nkPSh1P-12" value="&lt;font style=&quot;font-size: 14px;&quot;&gt;4.双飞翼布局&lt;/font&gt;" style="rounded=1;whiteSpace=wrap;html=1;fontSize=18;fillColor=#d5e8d4;strokeColor=#82b366;" vertex="1" parent="1">
          <mxGeometry x="220" y="270" width="90" height="20" as="geometry" />
        </mxCell>
        <mxCell id="HwkPko2BCfhJ_nkPSh1P-13" value="&lt;font style=&quot;font-size: 14px;&quot;&gt;3.圣杯布局&lt;/font&gt;" style="rounded=1;whiteSpace=wrap;html=1;fontSize=18;fillColor=#d5e8d4;strokeColor=#82b366;" vertex="1" parent="1">
          <mxGeometry x="220" y="229.99999999999997" width="90" height="20" as="geometry" />
        </mxCell>
        <mxCell id="HwkPko2BCfhJ_nkPSh1P-14" value="" style="shape=stencil(7ZzLshy3EUS/5m478H6sZfk/FCHKZJgmFRRtS3/vgq8xdzpr5jS580I7PpDTDaBQlZVV6Jf8w2/vf/r13UsKv3398vnv7/794eev71/yX15S+vDp/bsvH77an17yjy/5h18+f3n3ty+f//np59e///rTGrn+9I/P/1q/8PsrroWjh4VK4Y/XfwlHG//9h7++jv/44dPd+NqPkWT8TDC+HLGdxscjTRgfj6LjG4wv82j5ND4docP4sR//Nr7Q7/cjVRk/A4xvR+2n8fnIGcbX/XNv4zusv40v598vR248vsn4Qetj48/7W4/K75/P69+OXL7n/dvR+f3/Z457vG3IxXpmGd9pvL3u2R7MQCKOn13Gdxrfj3p+/7kN6ql9Jhk/6PfH3s7beQlHpg2eumEGmGRxdsLkCXGfuWcAWaKYjkQ+JRyhKWCCURhADmXMRwOrM0A573K0YwPbYIAuc6j7JZ/5reAAHfbBAPlsGLGhJzLAjGdAPyIB0lEdYNIq5SOWM2Cg8zWAGHecRwXvaIB5foKFjwzmbeEjnU3D4gFOuhxV/LsFBAaIwzAPHGgOVa3VAJNsqR7xvA/mgzFm1u1Cb4B6DDpA1QXBtsP0M8CUOXS21ra36QYYzBPa0eQJc0fGZ8QinB1ftkNL1tr1AOWIrtUA/Wwa2UyDjG9sQ7gDdH6C2FLOO/w+fSVhC4Wtte9ofAeg+GOAJE+oTMCaWyUzPppD2wHzBrjF1GfGJ17DAJOdgHDU3DdLeepmugIGO7IkrzSQtplvzVUBaBpx07QbYG5v+zRORwWQEzCmMc8bV8J2ns+o0igKmEQdikbREjGKlqRnujA7X1PMCiB6aPvazvtQMpqGGXM877TNigK7HXld1rJd22NAUEZpC02UMvmNq9vgHwN8DtD2rB4D8vZzdwCag0VloQ5mXRE2zpjFaAogRmbsKMocBu6DUcJYFVDgiDpiXJipm9MKOh6j9JHk9MwjEC12S2rjYdMsD0w6PpIZaSK5xpMVHdH9Pp1NS8zd7wdYn7Dzlvv1BIsI6iBXaoPjw9DxlOkFDeY2vuH7R/f+xG2DJs7LPnH8mDo+w/jo7GdwJvxgPSMcsLGt5RvHR5ctrBcCg7ZkojhAhR1YUpEDdALkHYPvbQ7WyA598oeMPKnZjDvFlLVZNNCIZjEOtjlntdMa8NyviFYVgCGwK9lZ2S7NYe6U6waI+5mPTS/q2TRAJSqSlAevbJfITtHwYYyMJm0hVY6PAShFsgipr5RZuelbuLsDoPRktiQ7XfDEmeUkB2gkDjnpZiWvRGuDqhgGKKyTyJk2ADLtoAdopZaUFwZleAYgBXMB5JVumeJTQFAA5iPGjuSVxmZkT1dJTMNi58WyRgUQYVs+QmTYgM7YTEOs1QAobM/Ntm6AyMr5VFtqCRneGz+7A6DQODTEtYzi0KKYUQF4RLuqGK3wsrr83ADkWw0gOVWrSAMWoCuAeNKqYJzPQ2vbup5K3FkB6IybJvTNloFeyUkGbWz7/cZUtV3I7q7s0SYva3XWOtEJrCzwvHE9IJsxQD1zjR43BX+abncFYC2s6BHtCbUeAwj9MQB5b0uutbrCApcBxLf2wllSVr3KAI02Lqmk3CvbUtIIZIDGKoZo0L3tQPyM/sykAHQzUZ1x78w1oiaHBiBWWaKz1sF1w6hh1wCkchtAhPc+t1t4Cjjb0gic0ESNoiOwtUYlJyPuyP0UcF7WkTiguKTYAOiMPSAjdVgAWSXWqx6s0gVJ9PtwcYCiKsQGuDiiQk5GQ5W7JA2KBrh4wpBJd24DyM40OptG0fR4DKRwBtBC8eCgWPf5ugGMQXEUlVYMA2CW1dXzzcBzGEp0DUAaSJna/WAArI0FjXEzol9aeeHZlmZCa11Z21RAp7pS0fxhZs4fXDFtZtTRfRFnFjSN6hK/WVGmMGouwvtkSdmYtqil8yaNPAYU7cswABlfc3UlA1A9w+hUkH3oqDr0pOfBAFSe6I63TnYCFtGmewJVfcy5S+XKAJRlmRcSVzkHqrhzujnMzaCeAcTNzIk6+gI0BVBgt/9uSQF04uZ48EpUcjSAmvdEN2OmJk+IIWCV386L6HbrERCz7Ah3txGkPS4n4SYxGCBtAWtdaQ5ZZbi1c7QRWYU+A5DrM0BztpHoCUUZlgEoCbJ9EMI0OSouNxQdgJ7QH5grPsFpwJMrM2sR3bIS012G0N0+UG0muOrG2mp+RHePoORy+hh0Ya5DS+RXB8K8tT/V9EpNX+kbTnX0jyBPU7Rc/LY3z05EdcuEzu97AaNqZja5kGhJj2TIkytrlumNqgBSW7onAwNlgR41y58DlYo2tNlnxQBiQN5v9D2rZwxIPROLWHVqgXPxE3A0RvsklTMDJn3Tt3UZgMjA6sdztA/7j5KqXpPbgxdfDwrAftmpedMyeG7Q1tieuCvlpq3cAVCjrS5JifxKPrRH7IYorg5paRAqd8mR48ASU9qJ213uR6XR4mqpg2PQah4678NgJ5CnJloGoCQlD020RufOmrFVgzsA9VBlV5Ib3Pey+socgHKOVUuVVarY95K7nrgLtSV3DVkXek7uWhq9UIzWHL5Lk3oAYNVrvdJQAOlqD+bAyt2DVWJt8ME+sPqYXX/qhb6Z3U2BCwV1AZoCKH/Nt7LMnQqMhfyuXqPzbYq106KVXx4gVYHb1RHVSdf9E8+cgNDKXrmncGh86Ky2mCMTN9Mz1r+yK42uqgi7yi41i4TkJLsc/KKyswBiGhH7tYu7g2EA1GiDOoEeWMkOrjQ6cdIGGK6Gd1EVkVcy2oiVnbgN4Q5ArNIA+kq3iPFU+pbSaMOuwiV9dwXgfZ6k3LtVzMsW14gKIFta4rosa+E7W0mNrxUUE4tTNlpGN1Ncc+Sq/NOky4NmhAvOJ+nA6l4gRnZbkxsgoq72oOIc+DxU7Qhvgc/DrXdnAy66SNYTvqtPpVRtmr3ohCmua3b12pBpuH7ti26e4m7brH4hMu+qgb1e9EcUdQKrAsBldsmBauX+OafD1XLlBCQtW1cguEpYmwKwduQSv3VbjEmitsMlvBZibEbK7DWhcJeLKic1XnXmyw26dWuP2kOHxunVKUkA17KxGrMuGu3Pxlc4j4uPOlapzThGdferjRDMe6hbWik8qRR/9sH/2Qd/Gv//1QfvSOEaT75U70e/dQ0+Fg6V7BRuxZna2rl6BqnPPirBWx19BCiuMb9hOS26bxYYAH2KawgvfEHVNkH6M0rFJ6xdkDkUTJ6TUwFLQTNd94NkDhdZXlR9a9FWStqy5sJXl9mq6u5X1+WcKl64eyK7r2WsK3/M/UUxWHkfcx29oDoxn/fyrc0K7zm6fN4AqMZO7WJZ3OTiawFJAXTi1uVOuW/a0AdUF3QW++G7/NIAmy8+L5BVyVz3fqkTJ7sPkZR9e+AxoLgLqqwzVlclWrej6ZWKHtGceNJFM9V1w5t7faTRbJ1y6vUp2p+RWfVYd0DOppH4PNSs8WGxUC766PcIOACZLQmjWl8LoFVy2UW6uOTh7mpeffHA1aES5y+rDSwogFjYuoAkgIQ0skZVAReT4FshUpddVI7djIjckdsz1nUe+aDHYCFmaKYaB4sYQzcuXjQid1XQFpngGxX6jZHKH7hpmoOtq8P8BSb9wE3BxHM1Xp7Pw/qazEUBUVYp8QWJqp0NBsCvJBVlAvGy9V/4UoxXDbCSnseL1k53L3FiGrO65qUsy7vgPvw1kLQaDxG7GLykwan6aHeLKumHp+hLNXmqFNaufl9kJ/5wlpEcKSdVvJ+Sh1p15ZLb0MbawuWt6fJOTuOnRp3M1wOcMpLRX3v7SZjWLpFaP+yGv+/03ci/35UT8p3ZGvQrEBcf4qvaQsMX/urQaMO939VpX4E/ljPVA3ErVnUlLf79FjTSBKR2qwXa/T63TBddf9qv5m5BBG6Yjn6+5E9aVF0hoP9srjQVsDLV3H2dwP3bTkcJ2Lz0vR+WvB5vf3j7iuUvHz5+fP0I5v3/61cv7Z9ev5iZf/wP);lineShape=1;fontSize=18;" vertex="1" parent="1">
          <mxGeometry x="320" y="146.57999999999998" width="20" height="78.5" as="geometry" />
        </mxCell>
      </root>
    </mxGraphModel>
  </diagram>
</mxfile>
